<svg width="10" height="11" viewBox="0 0 10 11" fill="none" xmlns="http://www.w3.org/2000/svg">
<path fill-rule="evenodd" clip-rule="evenodd" d="M6.17828 5.218L9.75564 1.48511C10.0815 1.14513 10.0815 0.595586 9.75564 0.2556C9.42982 -0.0843861 8.90317 -0.0843861 8.57735 0.2556L5 3.98849L1.42265 0.2556C1.09683 -0.0843861 0.570185 -0.0843861 0.244365 0.2556C-0.0814549 0.595586 -0.0814549 1.14513 0.244365 1.48511L3.82172 5.218L0.244365 8.95089C-0.0814549 9.29088 -0.0814549 9.84042 0.244365 10.1804C0.406858 10.35 0.620182 10.4352 0.833507 10.4352C1.04683 10.4352 1.26016 10.35 1.42265 10.1804L5 6.44752L8.57735 10.1804C8.73984 10.35 8.95317 10.4352 9.16649 10.4352C9.37982 10.4352 9.59314 10.35 9.75564 10.1804C10.0815 9.84042 10.0815 9.29088 9.75564 8.95089L6.17828 5.218Z" fill="#F4F8FB"/>
</svg>
