<svg width="24" height="24" viewBox="0 0 24 24" fill="none" xmlns="http://www.w3.org/2000/svg">
<path fill-rule="evenodd" clip-rule="evenodd" d="M10.6901 7.84996C11.1935 7.09341 11.067 6.0823 10.3927 5.47312C9.71836 4.86394 8.69963 4.8404 7.99792 5.41779C7.2962 5.99517 7.1231 6.99935 7.59102 7.77835C8.05893 8.55735 9.02675 8.87624 9.86608 8.52796C10.2015 8.38801 10.4882 8.15215 10.6901 7.84996Z" stroke="#F4F8FB" stroke-width="1.5" stroke-linecap="round" stroke-linejoin="round"/>
<path fill-rule="evenodd" clip-rule="evenodd" d="M10.6901 18.1649C11.1935 17.4084 11.067 16.3972 10.3927 15.7881C9.71836 15.1789 8.69963 15.1553 7.99792 15.7327C7.2962 16.3101 7.1231 17.3143 7.59102 18.0933C8.05893 18.8723 9.02675 19.1912 9.86608 18.8429C10.2015 18.703 10.4882 18.4671 10.6901 18.1649V18.1649Z" stroke="#F4F8FB" stroke-width="1.5" stroke-linecap="round" stroke-linejoin="round"/>
<path fill-rule="evenodd" clip-rule="evenodd" d="M13.3101 13.0069C12.8067 12.2504 12.9332 11.2393 13.6075 10.6301C14.2818 10.0209 15.3006 9.99738 16.0023 10.5748C16.704 11.1522 16.8771 12.1563 16.4092 12.9353C15.9413 13.7143 14.9734 14.0332 14.1341 13.6849C13.7987 13.545 13.512 13.3091 13.3101 13.0069V13.0069Z" stroke="#F4F8FB" stroke-width="1.5" stroke-linecap="round" stroke-linejoin="round"/>
<path d="M11 6.07593C10.5858 6.07593 10.25 6.41171 10.25 6.82593C10.25 7.24014 10.5858 7.57593 11 7.57593V6.07593ZM19 7.57593C19.4142 7.57593 19.75 7.24014 19.75 6.82593C19.75 6.41171 19.4142 6.07593 19 6.07593V7.57593ZM7.327 7.57593C7.74121 7.57593 8.077 7.24014 8.077 6.82593C8.077 6.41171 7.74121 6.07593 7.327 6.07593V7.57593ZM5 6.07593C4.58579 6.07593 4.25 6.41171 4.25 6.82593C4.25 7.24014 4.58579 7.57593 5 7.57593V6.07593ZM11 16.3919C10.5858 16.3919 10.25 16.7277 10.25 17.1419C10.25 17.5561 10.5858 17.8919 11 17.8919V16.3919ZM19 17.8919C19.4142 17.8919 19.75 17.5561 19.75 17.1419C19.75 16.7277 19.4142 16.3919 19 16.3919V17.8919ZM7.327 17.8919C7.74121 17.8919 8.077 17.5561 8.077 17.1419C8.077 16.7277 7.74121 16.3919 7.327 16.3919V17.8919ZM5 16.3919C4.58579 16.3919 4.25 16.7277 4.25 17.1419C4.25 17.5561 4.58579 17.8919 5 17.8919V16.3919ZM13 12.7339C13.4142 12.7339 13.75 12.3981 13.75 11.9839C13.75 11.5697 13.4142 11.2339 13 11.2339V12.7339ZM5 11.2339C4.58579 11.2339 4.25 11.5697 4.25 11.9839C4.25 12.3981 4.58579 12.7339 5 12.7339V11.2339ZM16.673 11.2339C16.2588 11.2339 15.923 11.5697 15.923 11.9839C15.923 12.3981 16.2588 12.7339 16.673 12.7339V11.2339ZM19 12.7339C19.4142 12.7339 19.75 12.3981 19.75 11.9839C19.75 11.5697 19.4142 11.2339 19 11.2339V12.7339ZM11 7.57593H19V6.07593H11V7.57593ZM7.327 6.07593H5V7.57593H7.327V6.07593ZM11 17.8919H19V16.3919H11V17.8919ZM7.327 16.3919H5V17.8919H7.327V16.3919ZM13 11.2339H5V12.7339H13V11.2339ZM16.673 12.7339H19V11.2339H16.673V12.7339Z" fill="#F4F8FB"/>
</svg>
