<svg width="14" height="16" viewBox="0 0 14 16" fill="none" xmlns="http://www.w3.org/2000/svg">
<path d="M6.17575 0.972645C6.41294 0.791038 6.70336 0.692627 7.0021 0.692627C7.30084 0.692627 7.59126 0.791038 7.82845 0.972645L13.6153 5.39439C13.7767 5.51738 13.8957 5.6878 13.9554 5.88177C14.0152 6.07574 14.0127 6.28354 13.9484 6.47605C13.8841 6.66856 13.7612 6.83614 13.5969 6.9553C13.4326 7.07445 13.2352 7.13922 13.0322 7.14052H0.968324C0.765366 7.13922 0.567901 7.07445 0.403598 6.9553C0.239295 6.83614 0.116389 6.66856 0.0521025 6.47605C-0.0121839 6.28354 -0.0146289 6.07574 0.04511 5.88177C0.104849 5.6878 0.223778 5.51738 0.385232 5.39439L6.17575 0.972645ZM7.00026 5.09891C7.1733 5.09891 7.34246 5.04759 7.48633 4.95146C7.63021 4.85532 7.74235 4.71868 7.80857 4.55881C7.87479 4.39895 7.89211 4.22303 7.85835 4.05332C7.8246 3.8836 7.74127 3.72771 7.61891 3.60536C7.49656 3.483 7.34066 3.39967 7.17095 3.36591C7.00123 3.33216 6.82532 3.34948 6.66545 3.4157C6.50559 3.48192 6.36895 3.59406 6.27281 3.73793C6.17667 3.88181 6.12536 4.05096 6.12536 4.224C6.12592 4.45582 6.21829 4.67798 6.38226 4.84185C6.54623 5.00573 6.76844 5.09796 7.00026 5.09838V5.09891ZM1.7519 8.30723V11.8084H3.50171V8.3067L1.7519 8.30723ZM4.66842 8.30723V11.8084H6.41822V8.3067L4.66842 8.30723ZM7.58493 8.30723V11.8084H9.33473V8.3067L7.58493 8.30723ZM10.5014 8.30723V11.8084H12.2512V8.3067L10.5014 8.30723ZM2.12854e-06 14.4326C2.10351e-06 14.0457 0.15365 13.6747 0.427161 13.4011C0.700671 13.1275 1.07165 12.9737 1.45852 12.9735H12.5436C12.9301 12.9742 13.3005 13.1283 13.5736 13.4018C13.8466 13.6754 14 14.0461 14 14.4326V14.7244C14.0001 14.801 13.985 14.8768 13.9558 14.9476C13.9265 15.0184 13.8835 15.0827 13.8294 15.1369C13.7752 15.191 13.7109 15.234 13.6401 15.2632C13.5694 15.2925 13.4935 15.3076 13.4169 15.3075H0.583095C0.506414 15.3076 0.430474 15.2925 0.35963 15.2631C0.288787 15.2338 0.224433 15.1908 0.17026 15.1365C0.116087 15.0822 0.0731616 15.0178 0.0439448 14.9469C0.014728 14.876 -0.000205148 14.8 2.12854e-06 14.7233V14.4326Z" fill="url(#paint0_linear_36_4836)"/>
<defs>
<linearGradient id="paint0_linear_36_4836" x1="1.21879e-07" y1="17.0174" x2="13.0363" y2="1.23812" gradientUnits="userSpaceOnUse">
<stop stop-color="#61A9FC"/>
<stop offset="1" stop-color="#315BCE"/>
</linearGradient>
</defs>
</svg>
